<svg viewBox="0 0 500 500" xmlns="http://www.w3.org/2000/svg" xmlns:xlink="http://www.w3.org/1999/xlink"><linearGradient id="a" x1="0%" x2="0%" y1="0%" y2="100%"><stop offset="0" stop-color="#f17829"/><stop offset="1" stop-color="#b00"/></linearGradient><g fill="url(#a)"><path d="m248.767 56.083c-130.488 0-193.917 63.429-193.917 193.917s63.429 193.917 193.917 193.917 193.917-63.429 193.917-193.917-63.429-193.917-193.917-193.917zm0 350.302c-108.143 0-156.385-48.216-156.385-156.385 0-108.143 48.242-156.385 156.385-156.385 108.169 0 156.385 48.242 156.385 156.385 0 108.169-48.216 156.385-156.385 156.385z"/><path d="m250.015 302.462c-.006 0-.01 0-.015 0s-.01 0-.015 0c-8.507-.02-15.125-8.728-20.213-14.171-3.772-4.037-38.674-43.495-45.119-50.605-3.305-2.924-5.388-7.197-5.388-11.957 0-8.815 7.146-15.961 15.961-15.961 5.095 0 9.634 2.388 12.556 6.105 4.671 5.16 22.434 24.75 23.507 25.53 0 0 0-80.641 0-81.663 0-10.333 8.367-18.71 18.696-18.727h.015.015c10.329.017 18.696 8.394 18.696 18.727v81.663c1.074-.78 18.836-20.37 23.507-25.53 2.923-3.717 7.461-6.105 12.556-6.105 8.815 0 15.961 7.146 15.961 15.961 0 4.76-2.083 9.033-5.388 11.957-6.445 7.11-41.347 46.568-45.119 50.605-5.088 5.443-11.706 14.151-20.213 14.171zm-35.515 18.664h69.494c9.62 0 17.418 7.798 17.418 17.418v.407c0 9.62-7.798 17.418-17.418 17.418h-69.494c-9.62 0-17.418-7.798-17.418-17.418v-.407c0-9.62 7.798-17.418 17.418-17.418z"/></g></svg>